<?xml version="1.0" encoding="iso-8859-1"?>
<!-- Generator: Adobe Illustrator 19.0.0, SVG Export Plug-In . SVG Version: 6.00 Build 0)  -->
<svg version="1.1" id="Capa_1" xmlns="http://www.w3.org/2000/svg" xmlns:xlink="http://www.w3.org/1999/xlink" x="0px" y="0px"
	 viewBox="0 0 512 512" style="enable-background:new 0 0 512 512;" xml:space="preserve">
<g>
	<g transform="translate(1 1)">
		<path style="fill:#E3E7F2;" d="M501.101,281.11c1.82-17.36,1.82-34.864,0-52.224l-55.893-22.357
			c-4.64-18.156-11.883-35.545-21.504-51.627l23.808-55.467c-5.461-6.741-11.349-13.227-17.493-19.456
			c-6.229-6.144-12.715-12.032-19.456-17.493l-55.467,23.808c-16.081-9.621-33.471-16.864-51.627-21.504L281.112,8.897
			c-17.36-1.82-34.864-1.82-52.224,0L206.531,64.79c-18.156,4.64-35.545,11.883-51.627,21.504L99.437,62.486
			c-6.741,5.461-13.227,11.349-19.456,17.493c-6.144,6.229-12.032,12.715-17.493,19.456l23.808,55.467
			c-9.621,16.081-16.864,33.471-21.504,51.627L8.899,228.886c-1.82,17.36-1.82,34.864,0,52.224l55.893,22.357
			c4.64,18.156,11.883,35.545,21.504,51.627l-23.808,55.467c5.461,6.741,11.349,13.227,17.493,19.456
			c6.229,6.144,12.715,12.032,19.456,17.493l55.467-23.808c16.081,9.621,33.47,16.864,51.627,21.504l22.357,55.893
			c17.36,1.821,34.864,1.821,52.224,0l22.357-55.893c18.156-4.64,35.545-11.883,51.627-21.504l55.467,23.808
			c6.741-5.461,13.227-11.349,19.456-17.493c6.144-6.229,12.032-12.715,17.493-19.456l-23.808-55.467
			c9.621-16.081,16.864-33.471,21.504-51.627L501.101,281.11z M255,408.598c-84.831,0-153.6-68.769-153.6-153.6
			s68.769-153.6,153.6-153.6s153.6,68.769,153.6,153.6C408.593,339.826,339.828,408.591,255,408.598z"/>
		<path style="fill:#A4C2F7;" d="M445.208,303.467c-4.64,18.156-11.883,35.545-21.504,51.627l23.808,55.467
			c-5.461,6.741-11.349,13.227-17.493,19.456c-6.229,6.144-12.715,12.032-19.456,17.493l-17.067-7.339
			c3.755-3.243,7.339-6.656,10.923-10.155c6.144-6.229,12.032-12.715,17.493-19.456l-23.808-55.467
			c9.621-16.081,16.864-33.471,21.504-51.627l55.893-22.357c1.82-17.36,1.82-34.864,0-52.224l-55.893-22.357
			c-4.64-18.156-11.883-35.545-21.504-51.627l23.808-55.467c-5.461-6.741-11.349-13.227-17.493-19.456
			c-3.584-3.499-7.168-6.912-10.923-10.155l17.067-7.339c6.741,5.461,13.227,11.349,19.456,17.493
			c6.144,6.229,12.032,12.715,17.493,19.456l-23.808,55.467c9.621,16.081,16.864,33.471,21.504,51.627l55.893,22.357
			c1.82,17.36,1.82,34.864,0,52.224L445.208,303.467z"/>
	</g>
	<g transform="translate(1 7)">
		<path style="fill:#FFFFFF;" d="M380.696,80.294l38.417-16.49c-2.81-2.498-5.645-4.965-8.55-7.318l-41.086,17.635
			C373.284,76.072,377.038,78.111,380.696,80.294z"/>
		<path style="fill:#FFFFFF;" d="M64.792,297.467c4.64,18.156,11.883,35.545,21.504,51.627l-23.808,55.467
			c5.461,6.741,11.349,13.227,17.493,19.456c6.229,6.144,12.715,12.032,19.456,17.493l17.05-7.318
			c-3.71-3.299-7.361-6.679-10.906-10.175c-6.144-6.229-12.032-12.715-17.493-19.456l23.808-55.467
			c-9.621-16.081-16.864-33.471-21.504-51.627L34.499,275.11c-1.82-17.36-1.82-34.864,0-52.224l55.893-22.357
			c4.64-18.156,11.883-35.545,21.504-51.627L88.088,93.435c5.461-6.741,11.349-13.227,17.493-19.456
			c3.545-3.496,7.195-6.876,10.906-10.175l-17.05-7.318c-6.741,5.461-13.227,11.349-19.456,17.493
			c-6.144,6.229-12.032,12.715-17.493,19.456l23.808,55.467c-9.621,16.081-16.864,33.471-21.504,51.627L8.899,222.886
			c-1.82,17.36-1.82,34.864,0,52.224L64.792,297.467z"/>
	</g>
	<g>
		<path style="fill:#428DFF;" d="M210.833,207.298c-1.6-1.601-3.77-2.5-6.033-2.5c-2.263,0-4.433,0.899-6.033,2.5L156.1,249.965
			c-1.601,1.6-2.5,3.77-2.5,6.033c0,2.263,0.899,4.433,2.5,6.033l42.667,42.667c3.332,3.332,8.735,3.332,12.067,0
			c3.332-3.332,3.332-8.735,0-12.067L174.2,255.998l36.634-36.634c1.6-1.6,2.5-3.77,2.5-6.033
			C213.333,211.068,212.434,208.898,210.833,207.298z"/>
		<path style="fill:#428DFF;" d="M313.233,207.298c-3.341-3.281-8.701-3.256-12.012,0.054c-3.311,3.311-3.335,8.671-0.054,12.012
			l36.633,36.634l-36.634,36.634c-2.178,2.151-3.037,5.304-2.251,8.262c0.786,2.958,3.097,5.269,6.055,6.055
			c2.958,0.786,6.111-0.073,8.262-2.251l42.667-42.667c1.601-1.6,2.5-3.77,2.5-6.033c0-2.263-0.899-4.433-2.5-6.033L313.233,207.298
			z"/>
		<path style="fill:#428DFF;" d="M275.412,188.056c-4.531-1.275-9.242,1.345-10.55,5.867L230.729,313.39
			c-1.292,4.531,1.33,9.252,5.858,10.55c0.765,0.214,1.556,0.323,2.35,0.325c3.809-0.003,7.154-2.529,8.2-6.192l34.133-119.467
			C282.563,194.076,279.941,189.355,275.412,188.056z"/>
		<path style="fill:#428DFF;" d="M256,93.865c-89.544,0-162.133,72.59-162.133,162.133S166.456,418.131,256,418.131
			s162.133-72.59,162.133-162.133C418.032,166.496,345.502,93.966,256,93.865z M256,401.065
			c-80.118,0-145.067-64.949-145.067-145.067S175.882,110.931,256,110.931s145.067,64.949,145.067,145.067
			C400.977,336.079,336.081,400.975,256,401.065z"/>
		<path style="fill:#428DFF;" d="M505.271,221.956l-51.938-20.792c-4.465-16-10.868-31.395-19.067-45.842l22.062-51.525
			c1.242-2.897,0.783-6.243-1.192-8.7c-11.376-14.041-24.189-26.856-38.229-38.233c-2.459-1.977-5.809-2.436-8.708-1.192
			l-51.529,22.059c-14.444-8.202-29.837-14.605-45.837-19.067l-20.8-51.942c-1.172-2.926-3.862-4.967-6.996-5.309
			c-17.976-1.883-36.099-1.883-54.075,0c-3.133,0.341-5.823,2.382-6.996,5.308l-20.8,51.942c-16,4.462-31.393,10.865-45.837,19.067
			L103.8,55.673c-2.9-1.246-6.25-0.787-8.708,1.192c-14.038,11.381-26.85,24.194-38.229,38.233c-1.975,2.457-2.433,5.803-1.192,8.7
			l22.063,51.525c-8.199,14.447-14.602,29.842-19.067,45.842L6.729,221.956c-2.927,1.173-4.97,3.865-5.312,7
			c-1.889,17.978-1.889,36.105,0,54.083c0.343,3.135,2.385,5.827,5.312,7l51.938,20.792c4.465,16,10.868,31.395,19.067,45.842
			l-22.063,51.525c-1.242,2.897-0.783,6.243,1.192,8.7c11.376,14.042,24.189,26.856,38.229,38.233
			c2.46,1.975,5.808,2.433,8.708,1.192l51.529-22.059c14.444,8.202,29.837,14.605,45.837,19.067l20.8,51.942
			c1.172,2.926,3.862,4.967,6.996,5.308c17.976,1.889,36.1,1.889,54.075,0c3.133-0.341,5.823-2.383,6.996-5.308l20.8-51.942
			c16-4.462,31.393-10.865,45.837-19.067l51.529,22.059c2.9,1.24,6.248,0.782,8.708-1.192c14.038-11.381,26.85-24.194,38.229-38.233
			c1.975-2.457,2.433-5.803,1.192-8.7l-22.062-51.525c8.199-14.447,14.602-29.842,19.066-45.842l51.938-20.792
			c2.927-1.173,4.97-3.864,5.313-7c1.889-17.978,1.889-36.105,0-54.083C510.241,225.821,508.199,223.13,505.271,221.956z
			 M494.108,276.123l-51.088,20.45c-2.53,1.014-4.423,3.176-5.096,5.817c-4.439,17.344-11.352,33.959-20.525,49.333
			c-1.394,2.346-1.585,5.216-0.513,7.725l21.709,50.692c-4.187,4.958-8.763,9.925-13.65,14.808
			c-4.846,4.85-9.812,9.425-14.804,13.642l-50.692-21.7c-2.507-1.082-5.381-0.893-7.725,0.508
			c-15.374,9.174-31.989,16.087-49.333,20.525c-2.639,0.673-4.798,2.564-5.812,5.092l-20.458,51.092c-13.391,1.1-26.85,1.1-40.242,0
			l-20.459-51.092c-1.014-2.527-3.174-4.419-5.812-5.092c-17.344-4.438-33.959-11.351-49.333-20.525
			c-2.344-1.401-5.218-1.59-7.725-0.508l-50.692,21.7c-4.992-4.217-9.958-8.792-14.808-13.642
			c-4.883-4.883-9.458-9.85-13.646-14.808l21.709-50.692c1.072-2.509,0.882-5.379-0.513-7.725
			c-9.173-15.375-16.086-31.989-20.525-49.333c-0.673-2.641-2.566-4.802-5.096-5.817l-51.088-20.45
			c-0.546-6.483-0.825-13.225-0.825-20.125c0-6.9,0.279-13.642,0.825-20.125l51.088-20.45c2.53-1.014,4.423-3.176,5.096-5.817
			c4.439-17.344,11.352-33.959,20.525-49.333c1.394-2.345,1.584-5.216,0.513-7.725l-21.709-50.692
			c4.187-4.958,8.763-9.925,13.65-14.808c4.846-4.85,9.812-9.425,14.804-13.642l50.692,21.7c2.507,1.081,5.381,0.892,7.725-0.508
			c15.374-9.174,31.989-16.087,49.333-20.525c2.639-0.673,4.798-2.564,5.812-5.092l20.458-51.092c13.391-1.1,26.85-1.1,40.242,0
			l20.459,51.091c1.014,2.527,3.174,4.419,5.812,5.092c17.344,4.438,33.959,11.351,49.333,20.525
			c2.344,1.401,5.218,1.59,7.725,0.508l50.692-21.7c4.992,4.217,9.958,8.792,14.808,13.642c4.883,4.883,9.458,9.85,13.646,14.808
			l-21.708,50.692c-1.072,2.509-0.882,5.379,0.513,7.725c9.173,15.375,16.086,31.989,20.525,49.333
			c0.673,2.641,2.566,4.802,5.096,5.817l51.088,20.45c0.546,6.483,0.825,13.225,0.825,20.125
			C494.933,262.898,494.654,269.64,494.108,276.123z"/>
	</g>
</g>
<g>
</g>
<g>
</g>
<g>
</g>
<g>
</g>
<g>
</g>
<g>
</g>
<g>
</g>
<g>
</g>
<g>
</g>
<g>
</g>
<g>
</g>
<g>
</g>
<g>
</g>
<g>
</g>
<g>
</g>
</svg>
